<?xml version="1.0" encoding="UTF-8"?>
<svg id="Layer_1" data-name="Layer 1" xmlns="http://www.w3.org/2000/svg" viewBox="0 0 150 150">
  <defs>
    <style>
      .cls-1 {
        fill: #1daa61;
        stroke: #1daa61;
        stroke-miterlimit: 10;
      }
    </style>
  </defs>
  <path class="cls-1" d="m3.5,43c0-9,5.2-27.9,31.1-27.9s42.8,18.4,54.8,18.4,17.7-8.8,17.7-17.2h4.3c0,31.9-24.3,43.7-41.5,43.7s-18-2.3-25.2-5c7.3,20.5,31.7,7.1,31.7,26.2v52.6h-38V52.4c-6.8-2.9-12.1-5.7-16-5.7-8.5,0-9,10.4-4.5,13.7l-3.1,2.9c-6.4-5.4-11.4-11.4-11.4-20.3Z"/>
  <path class="cls-1" d="m146.5,110.1c-.4,12.6-6.4,24.8-22.9,24.8s-15.3-8.5-24.3-8.5-8.1,2.7-8.1,7.6h-3.3c0-6.4.4-24.5,14.3-24.5s16.9,22.4,26,21.6c3.3-.3,6.1-3.4,5.1-8-1.2-5-5.9-10.6-20.4-13.3-12.3-2.4-25.4-10.6-25.8-25.5-.4-11.2,8.8-22,19.2-22s16.6,6.8,25.8,6.8,9.3-2,9.3-5.9h3.4c0,6.3-2.5,20.5-13.7,20.5s-15.7-18.2-24.7-18.2-10.7,10.2,8.1,14.9c19.9,5.1,32.6,12.9,32,29.6Z"/>
</svg>