<?xml version="1.0" encoding="UTF-8"?>
<svg id="Layer_1" data-name="Layer 1" xmlns="http://www.w3.org/2000/svg" viewBox="0 0 150 150">
  <defs>
    <style>
      .cls-1 {
        fill: #fff;
      }

      .cls-2 {
        fill: #1bb76e;
        stroke: #1bb76e;
        stroke-miterlimit: 10;
        stroke-width: 3px;
      }
    </style>
  </defs>
  <g>
    <path class="cls-1" d="m99,11.2c3.2,4.7,6.4,9.4,9.4,14.1,1.9,3,.9,5-2.5,5.3-5,.4-10,.7-15,.7-1.1,0-3-1.3-3.2-2.4-.5-2,1.2-2.8,3.1-3,1.2-.1,2.3-.3,3.5-.4,0-.4,0-.8.1-1.2-4.5-1-8.9-2.5-13.4-2.9-26.2-2.5-48.8,11.8-57.3,36.7-6,17.6-3.1,34.2,7.7,49.4.5.7,1.1,1.4,1.6,2.1,1.3,1.6,2.1,3.4,0,4.9-2,1.5-3.3,0-4.5-1.4-4.8-5.9-8.5-12.5-10.7-19.8C7.9,60.5,25.7,27.4,58.7,17.7c11.7-3.5,23.5-3,35.1.8.9.3,1.8.5,3.2.9-.7-3-3.9-5.4-.8-8.1.9,0,1.8,0,2.7,0Z"/>
    <path class="cls-1" d="m50.3,138.8c-2.8-4.3-5.6-8.5-8.4-12.8-2.4-3.7-1.6-5.6,2.7-6,4.7-.3,9.3-.5,14-.7,1.8,0,3.5.2,3.7,2.4.2,2.3-1.4,3-3.4,3.2-1,0-1.9.3-2.8.4,0,.4-.1.8-.2,1.2,4.4,1,8.8,2.4,13.2,2.8,26.3,2.4,48.9-12,57.2-36.9,5.8-17.5,3-34-7.6-49.1-.7-1-1.9-1.9-2.1-3-.3-1.3.1-2.8.2-4.2,1.4.2,3.3,0,4,.8,2.2,2.5,4.2,5.2,5.9,8.1,20.6,34.6,1,79.8-38.2,88.7-11.4,2.6-22.5,2-33.5-1.9-.4-.1-.8-.3-1.3-.3-.2,0-.4,0-.2,0,.3,2.5.5,4.9.8,7.3h-4Z"/>
  </g>
  <path class="cls-2" d="m76.4,95c-7.3,0-14.5,0-21.8,0-3.5,0-5.7-1.9-5.7-5.2,0-9.2,0-18.4,0-27.6,0-3.2,2.1-5.2,5.6-5.2,14.6,0,29.2,0,43.7,0,3.5,0,5.6,2,5.6,5.2,0,9.2,0,18.5,0,27.7,0,3.2-2.1,5.1-5.6,5.1-7.3,0-14.7,0-22,0Zm24.1-31.3c-.3.2-.4.3-.6.4-7.3,5.8-14.5,11.6-21.8,17.4-1.4,1.1-2,1.1-3.4,0-7.2-5.8-14.5-11.5-21.7-17.3-.2-.1-.4-.3-.7-.5,0,.3,0,.5,0,.7,0,8.5,0,16.9,0,25.4,0,1.5.6,2,2.2,2,14.6,0,29.1,0,43.7,0,1.7,0,2.2-.5,2.2-2,0-8.4,0-16.9,0-25.3v-.8Zm-24.1,15c7.7-6.1,15.3-12.2,23-18.4h-46.1c7.8,6.2,15.4,12.3,23,18.4Z"/>
</svg>