<?xml version="1.0" encoding="UTF-8"?>
<svg id="Layer_1" data-name="Layer 1" xmlns="http://www.w3.org/2000/svg" viewBox="0 0 150 150">
  <defs>
    <style>
      .cls-1 {
        fill: #1daa61;
      }
    </style>
  </defs>
  <g>
    <path class="cls-1" d="m75.5,123.5c-13.1,0-25.4-5.1-34.6-14.4s-14.3-21.6-14.3-34.7c0-27,22-48.9,49-48.9,13.1,0,25.4,5.1,34.7,14.4,9.3,9.3,14.4,21.6,14.4,34.7,0,27-22,49-49,49h0Zm0-81.7c-6.8,0-13.4,2.8-18.1,7.7-7.1,7.4-8.7,17-4.6,26.3.6,1.3,1.3,2.7,2,4.1,4,7.3,9.1,13.8,13,18.6,1.6,1.9,3.2,3.8,4.9,5.8.8.9,1.5,1.8,2.3,2.7l.4.4.4-.4c.4-.4.8-.9,1.1-1.3.8-.8,1.5-1.6,2.1-2.4.8-1,1.6-2,2.4-3,2.8-3.4,5.6-7,8.3-10.6,3.8-5.1,6.7-10,8.7-14.8,1-2.4,2-5.2,2-8.4,0-10.1-6.4-19.3-15.7-23-3-1.2-6.1-1.8-9.3-1.8Z"/>
    <path class="cls-1" d="m75.5,25v1h0c13,0,25.1,5,34.3,14.2,9.2,9.2,14.2,21.3,14.2,34.3,0,26.7-21.8,48.5-48.5,48.5-12.9,0-25.1-5.1-34.3-14.3-9.2-9.2-14.2-21.4-14.2-34.3,0-26.7,21.8-48.4,48.5-48.4v-1m0,83.3l.8-.9c.4-.4.8-.9,1.1-1.3.8-.8,1.5-1.6,2.1-2.5.8-1,1.6-2,2.4-3,2.8-3.4,5.6-7,8.3-10.6,3.8-5.1,6.7-10,8.8-14.9,1-2.4,2.1-5.3,2-8.6,0-10.3-6.5-19.7-16-23.5-3-1.2-6.2-1.8-9.5-1.8-6.9,0-13.7,2.9-18.4,7.9-7.2,7.6-8.9,17.4-4.7,26.9.6,1.3,1.3,2.7,2,4.1,4,7.4,9.1,13.9,13,18.7,1.6,1.9,3.2,3.8,4.9,5.8.8.9,1.5,1.8,2.3,2.7l.7.9m0-83.3h0c-27.3,0-49.4,22.1-49.5,49.4,0,27.3,22.1,49.6,49.5,49.6,0,0,0,0,0,0,27.3,0,49.5-22.2,49.5-49.5,0-27.3-22.2-49.5-49.5-49.5h0Zm0,81.8c-2.5-2.9-4.9-5.7-7.2-8.5-4.8-5.9-9.3-11.9-12.9-18.6-.7-1.3-1.4-2.7-2-4-4.1-9.1-2.4-18.6,4.5-25.8,4.7-4.9,11.1-7.6,17.7-7.6s6.1.6,9.1,1.7c9.2,3.6,15.4,12.6,15.4,22.5,0,2.9-.9,5.6-2,8.2-2.2,5.3-5.2,10.1-8.7,14.7-3.4,4.6-7.1,9.1-10.7,13.5-1,1.2-2,2.3-3.2,3.7h0Z"/>
  </g>
  <g>
    <path class="cls-1" d="m75.5,75.2c-2.4,0-4.6-.9-6.2-2.6-1.7-1.7-2.6-3.9-2.6-6.3,0-4.8,4-8.7,8.8-8.7,2.4,0,4.6.9,6.2,2.6,1.7,1.7,2.6,3.9,2.6,6.3,0,4.8-4,8.7-8.8,8.7h0Z"/>
    <path class="cls-1" d="m75.5,58.1c2.2,0,4.3.9,5.9,2.4,1.6,1.6,2.4,3.7,2.4,5.9,0,4.5-3.7,8.2-8.3,8.2-2.2,0-4.3-.9-5.9-2.4-1.6-1.6-2.4-3.7-2.4-5.9,0-4.5,3.7-8.2,8.3-8.2h0m0-1c-5.1,0-9.3,4.1-9.3,9.2,0,5.2,4.1,9.4,9.3,9.4h0c5.1,0,9.3-4.1,9.3-9.2,0-5.2-4.1-9.4-9.3-9.4h0Z"/>
  </g>
</svg>