<?xml version="1.0" encoding="UTF-8"?>
<svg id="Layer_1" data-name="Layer 1" xmlns="http://www.w3.org/2000/svg" viewBox="0 0 150 150">
  <defs>
    <style>
      .cls-1 {
        fill: #1daa61;
      }
    </style>
  </defs>
  <path class="cls-1" d="m75,124.5c-13.2,0-25.6-5.2-35-14.5s-14.5-21.8-14.5-35c0-27.3,22.2-49.5,49.5-49.5,13.3,0,25.7,5.2,35,14.6,9.3,9.4,14.5,21.8,14.5,35,0,27.2-22.2,49.4-49.5,49.4h0Zm-27.1-23.5h13v-37.4h-13v37.4Zm18.9,0h13.1v-7.6c0-4.5,0-9.1,0-13.6,0-2.1.7-3.8,2.3-5.1,1.1-1,2.4-1.5,3.8-1.5,2.5,0,4.6,1.7,5.3,4.2.3,1.1.4,2.4.5,3.9,0,4.4,0,8.8,0,13.2v6.6s13.1,0,13.1,0v-6.6c0-5.6,0-11.3,0-16.9,0-1.8-.5-3.6-.9-4.9-1.6-5.5-5.2-8.8-10.5-9.7-1.1-.2-2.2-.3-3.3-.3-4.2,0-7.7,1.7-10.3,5v-4.1h-13.1v37.4Zm-12.3-55.1c-3.5,0-6.1,1.7-7,4.6-.7,2.2-.4,4.4.8,6.1,1.3,1.8,3.6,2.9,6.1,2.9h.3c4.2-.1,7.2-2.9,7.1-6.9,0-3.9-3-6.7-7.2-6.7h0Z"/>
  <path class="cls-1" d="m75,26h0,0c13.1,0,25.4,5.1,34.6,14.4,9.2,9.3,14.3,21.6,14.3,34.7,0,27-22,48.9-49,48.9-13.1,0-25.4-5.1-34.6-14.4-9.3-9.3-14.4-21.6-14.3-34.7,0-27,22-49,49-49m-20.6,33.9c0,0,.2,0,.3,0,4.5-.1,7.6-3.2,7.6-7.4,0-4.2-3.2-7.2-7.8-7.2-3.6,0-6.5,1.9-7.5,4.9-.8,2.3-.4,4.7.9,6.6,1.4,2,3.8,3.1,6.5,3.1m26,6.3v-3.2h-14.1v38.4h14.1v-1.6s0-1.1,0-1.1v-5.4c0-4.5,0-9.1,0-13.6,0-2,.7-3.5,2.1-4.8,1-.9,2.2-1.4,3.5-1.4,2.3,0,4.2,1.5,4.8,3.8.3,1.1.4,2.3.4,3.7,0,4.4,0,8.8,0,13.1,0,1.6,0,3.2,0,4.7v2.4h14.1v-1c0-2,0-4.1,0-6.1,0-5.6,0-11.3,0-16.9,0-1.9-.5-3.7-.9-5-1.7-5.6-5.4-9.1-10.9-10-1.2-.2-2.3-.3-3.4-.3-3.9,0-7.2,1.4-9.8,4.2m-33,35.2h14v-38.4h-14v38.4m27.7-76.5c-27.6,0-50,22.4-50,50,0,27.6,22.4,50,50,50h0c27.6,0,50-22.4,50-49.9,0-27.6-22.3-50.1-49.9-50.1,0,0,0,0,0,0h0Zm-20.6,33.9c-4.8,0-7.9-4-6.5-8.4.9-2.7,3.3-4.2,6.6-4.2s0,0,0,0c3.9,0,6.7,2.6,6.7,6.2,0,3.6-2.7,6.3-6.6,6.4,0,0-.2,0-.2,0h0Zm25,9.9c.3-.3.5-.4.6-.6,2.7-3.7,6.1-5.2,10.2-5.2,1,0,2.1.1,3.2.3,5.3.9,8.6,4.2,10.1,9.3.4,1.5.8,3.1.8,4.7,0,7.6,0,15.3,0,23h-12.1c0-.5,0-1,0-1.4,0-5.9,0-11.9,0-17.8,0-1.3-.1-2.7-.5-4-.8-2.9-3.2-4.6-5.7-4.6s-2.9.5-4.2,1.6c-1.7,1.5-2.4,3.3-2.4,5.5,0,6.3,0,12.7,0,19,0,.5,0,1,0,1.7h-12.1v-36.4h12.1v4.8h0Zm-31,31.6v-36.4h12v36.4h-12Z"/>
</svg>