<?xml version="1.0" encoding="UTF-8"?>
<svg id="Layer_1" data-name="Layer 1" xmlns="http://www.w3.org/2000/svg" viewBox="0 0 150 150">
  <defs>
    <style>
      .cls-1 {
        fill: #1daa61;
      }
    </style>
  </defs>
  <g>
    <path class="cls-1" d="m74.9,124.7c-27.3,0-49.6-22.3-49.6-49.6,0-13.2,5.1-25.7,14.5-35.1,9.4-9.4,21.9-14.6,35.1-14.6,13.3,0,25.7,5.2,35.1,14.6,9.4,9.4,14.6,21.9,14.6,35.1,0,27.4-22.3,49.6-49.6,49.6h-.1Zm-.2-78c-3.4,0-6.8,0-10.2,0-9.9,0-17.7,7.8-17.9,17.6-.1,6.9-.1,13.9,0,21.5.1,9.7,7.8,17.4,17.4,17.6,3.6,0,7.3,0,10.9,0h0c3.7,0,7.4,0,11.1-.1,8.9-.2,16.2-6.8,17.1-15.5.3-2.9.2-5.9.1-8.8,0-1.2,0-2.3,0-3.5h.2v-3.8c0-2.4,0-4.8,0-7.2-.1-10-8-17.8-17.9-17.8-3.6,0-7.1,0-10.7,0Z"/>
    <path class="cls-1" d="m75,25.8c13.1,0,25.4,5.1,34.7,14.4,9.3,9.3,14.4,21.6,14.4,34.7,0,27.1-22,49.1-49.1,49.1h-.1c-27,0-49.1-22.1-49.1-49.1,0-13.1,5.1-25.4,14.4-34.7,9.3-9.3,21.7-14.5,34.8-14.5h0m0,78.1c3.7,0,7.4,0,11.1-.1,9.1-.2,16.7-7,17.6-16,.3-3,.2-6,.1-8.9,0-1,0-2,0-3h.2v-1c0-1.1,0-2.2,0-3.3,0-2.4,0-4.8,0-7.3-.1-10.2-8.2-18.3-18.4-18.3-3.6,0-7.1,0-10.7,0s-6.8,0-10.2,0c-10.1,0-18.2,8-18.3,18-.1,6.9-.1,13.9,0,21.6.1,10,8,17.9,17.9,18.1,3.6,0,7.3,0,10.9,0m0-79.1h0c-27.6,0-50.2,22.6-50.1,50.2,0,27.6,22.5,50,50.1,50.1,0,0,0,0,.1,0,27.5,0,50.1-22.5,50.1-50.1,0-27.6-22.5-50.2-50.1-50.2h0Zm0,78.1c-3.6,0-7.3,0-10.9,0-9.4-.2-16.7-7.7-16.9-17.1,0-7.2-.1-14.4,0-21.5.1-9.6,7.7-17,17.4-17.1,3.4,0,6.8,0,10.2,0s7.1,0,10.7,0c9.7,0,17.3,7.6,17.4,17.3,0,3.5,0,7,0,10.5,0,0-.1,0-.2,0,0,4.3.3,8.5,0,12.8-.9,8.5-8,14.9-16.6,15.1-3.7,0-7.4.1-11.1.1h0Z"/>
  </g>
  <g>
    <path class="cls-1" d="m74.9,96.2c-3.5,0-6.9,0-10.4,0-6,0-10.6-4.6-10.6-10.7,0-6.7,0-13.7,0-20.9,0-6.1,4.6-10.7,10.7-10.7,3.5,0,7,0,10.5,0s6.9,0,10.4,0c6,0,10.6,4.7,10.7,10.8,0,2.4,0,4.8,0,7.3v3.1s0,3.3,0,3.3c0,2.4,0,4.8,0,7.3,0,6-4.6,10.6-10.6,10.6-3.6,0-7.1,0-10.7,0Zm.1-35.9c-8.1,0-14.7,6.6-14.7,14.7,0,3.9,1.5,7.6,4.3,10.4,2.8,2.8,6.5,4.4,10.4,4.4,8.1,0,14.7-6.6,14.7-14.7,0-3.9-1.5-7.6-4.3-10.4-2.8-2.8-6.5-4.4-10.4-4.4h0Zm15-3.2c-.8,0-1.5.3-2.1.9-.6.6-.9,1.3-.8,2,0,1.6,1.3,2.8,2.9,2.8,1.6,0,2.9-1.2,2.9-2.8,0-1.6-1.2-2.9-2.8-2.9h-.1Z"/>
    <path class="cls-1" d="m75.1,53.3v1c3.5,0,6.9,0,10.4,0,5.8,0,10.1,4.4,10.2,10.3,0,2.4,0,4.9,0,7.2,0,1.1,0,2.1,0,3.2,0,1.1,0,2.2,0,3.3,0,2.4,0,4.8,0,7.3,0,5.7-4.4,10.1-10.1,10.1-3.5,0-7.1,0-10.6,0s-7,0-10.5,0c-5.7,0-10.1-4.4-10.1-10.2,0-6.7,0-13.7,0-20.9,0-5.8,4.4-10.2,10.2-10.2,3.5,0,7,0,10.6,0v-1m14.8,10h0c1.9,0,3.3-1.4,3.4-3.3,0-1.9-1.4-3.4-3.3-3.4h-.1c-.9,0-1.8.4-2.4,1-.6.7-1,1.5-1,2.4,0,1.9,1.5,3.3,3.4,3.3h0m-14.9,26.9h0c8.4,0,15.2-6.8,15.2-15.2,0-4.1-1.6-7.9-4.5-10.8-2.9-2.9-6.7-4.5-10.8-4.5-8.4,0-15.2,6.8-15.2,15.2,0,4.1,1.6,7.9,4.5,10.8,2.9,2.9,6.7,4.5,10.8,4.5m.1-36.9c-3.5,0-7.1,0-10.6,0-6.4,0-11.2,4.8-11.2,11.2,0,7,0,14,0,20.9,0,6.3,4.8,11.1,11.1,11.2,3.5,0,7,0,10.5,0s7.1,0,10.6,0c6.3,0,11.1-4.8,11.1-11.1,0-3.5,0-7,0-10.5,0-3.5,0-6.9,0-10.4,0-6.4-4.8-11.2-11.2-11.2-3.5,0-6.9,0-10.4,0h0Zm14.8,9s0,0,0,0c-1.3,0-2.4-1-2.4-2.3,0-1.3,1.1-2.4,2.4-2.4s0,0,0,0c1.3,0,2.3,1.1,2.3,2.4,0,1.3-1,2.3-2.4,2.3h0Zm-14.9,26.9c-7.8,0-14.3-6.5-14.2-14.3,0-7.8,6.4-14.2,14.2-14.2h0c7.8,0,14.3,6.5,14.2,14.3,0,7.8-6.4,14.2-14.2,14.2h0Z"/>
  </g>
  <g>
    <path class="cls-1" d="m74.9,83.1c-4.5,0-8.1-3.7-8.1-8.1,0-4.5,3.7-8.1,8.1-8.1,4.5,0,8.1,3.7,8.1,8.1,0,4.5-3.7,8.1-8.1,8.1h0Z"/>
    <path class="cls-1" d="m75,67.4h0,0c4.2,0,7.6,3.5,7.6,7.6,0,4.2-3.4,7.6-7.6,7.6h0c-4.2,0-7.6-3.5-7.6-7.6,0-4.2,3.4-7.6,7.6-7.6m0-1c-4.8,0-8.6,3.9-8.6,8.6,0,4.7,3.8,8.6,8.6,8.6,0,0,0,0,0,0,4.8,0,8.6-3.9,8.6-8.6,0-4.7-3.8-8.6-8.6-8.6,0,0,0,0,0,0h0Z"/>
  </g>
</svg>