<?xml version="1.0" encoding="UTF-8"?>
<svg id="Layer_1" data-name="Layer 1" xmlns="http://www.w3.org/2000/svg" viewBox="0 0 150 150">
  <defs>
    <style>
      .cls-1 {
        fill: #1daa61;
      }
    </style>
  </defs>
  <g>
    <path class="cls-1" d="m74.9,124.5c-27.3,0-49.4-22.2-49.4-49.5,0-27.3,22.2-49.5,49.5-49.5s25.6,5.2,35,14.5c9.4,9.4,14.5,21.8,14.5,35,0,27.3-22.2,49.5-49.5,49.5h0Zm1.1-80.7c-2.1,0-4.2.2-6.2.7-9.4,2-17.1,8.1-21.2,16.7-4.1,8.6-3.9,18.5.4,27,.4.8.5,1.5.2,2.3-.4,1.2-.7,2.5-1,3.7-.1.5-.3,1-.4,1.5l-2.6,9.6,1.4-.3c.3,0,.5-.1.7-.2l3.6-.9c3.3-.9,6.7-1.7,10-2.6.1,0,.3,0,.5,0,.4,0,.7,0,1,.2,4.4,2.1,9,3.2,13.6,3.2s3.3-.1,4.9-.4c8.1-1.3,15.2-5.8,20-12.5,4.8-6.8,6.6-15.1,5-23.3-2.7-14.3-15.2-24.7-29.9-24.7Z"/>
    <path class="cls-1" d="m75,25v1c13.1,0,25.4,5.1,34.6,14.4,9.3,9.3,14.4,21.6,14.3,34.7,0,27-22,49-49,49h0c-27,0-48.9-22-48.9-49,0-27,22-49,49-49v-1m-30.5,80.9l1.6-.3h.6c.3-.2.5-.2.8-.3,1.2-.3,2.4-.6,3.5-.9,3.3-.9,6.7-1.8,10-2.6.1,0,.2,0,.4,0,.3,0,.6,0,.8.2,4.5,2.2,9.1,3.3,13.8,3.3s3.3-.1,5-.4c8.3-1.3,15.5-5.9,20.3-12.7,4.9-6.9,6.7-15.3,5.1-23.7-2.7-14.5-15.5-25.1-30.4-25.1s-4.3.2-6.4.7c-9.5,2-17.4,8.2-21.6,17-4.2,8.8-4,18.8.4,27.4.4.7.4,1.3.2,1.9-.4,1.2-.7,2.5-1,3.7-.1.5-.3,1-.4,1.5l-1.6,6.1-.8,2.8-.4,1.6m30.5-80.9c-27.6,0-50,22.4-50,50,0,27.5,22.4,49.9,49.9,50,0,0,0,0,0,0,27.6,0,50-22.4,50-50,0-27.6-22.4-50-50-50h0Zm-29.1,79.6c.8-3.1,1.6-6,2.4-8.8.5-1.7.9-3.4,1.4-5.1.3-1,.2-1.8-.3-2.7-9-17.6,1.1-38.9,20.4-43,2.1-.4,4.1-.6,6.1-.6,14,0,26.7,10,29.4,24.3,3.1,16.7-8,32.5-24.6,35.2-1.6.3-3.3.4-4.9.4-4.6,0-9.1-1.1-13.4-3.2-.3-.2-.8-.3-1.2-.3s-.4,0-.6,0c-4.5,1.1-9.1,2.3-13.6,3.5-.3,0-.7.1-1.3.3h0Z"/>
  </g>
  <g>
    <path class="cls-1" d="m75.4,98.5c-3.9,0-7.8-1.1-11.8-3.3-.4-.2-1-.4-1.6-.4s-.5,0-.7,0c-2,.5-4,1-6.1,1.6l-1.5.4c.1-.5.3-1,.4-1.5.5-1.9,1-3.7,1.5-5.5.3-1,.2-1.8-.4-2.8-3.9-6.4-4.7-14.2-2.1-21.2,2.5-6.9,8-12.2,14.9-14.5,2.9-1,5.8-1.5,8.6-1.5,6.5,0,12.3,2.7,17.4,8.1,6.7,7.1,8.4,17.7,4.1,26.4-4.5,9.4-12.1,14.2-22.6,14.3h-.2Zm-9-38.7c-1.3,0-2.7.5-3.4,1.3-2.9,3-3.5,7-1.6,10.7,3.4,6.8,8.2,11.8,14.5,14.9,2.4,1.2,5,2.3,8,2.4.1,0,.2,0,.4,0,1.6,0,3.2-.5,4.9-1.7,1.8-1.2,2.6-2.9,2.5-5.4,0-.5-.4-1.3-.9-1.5-1.8-.9-3.8-2-6-2.9-.1,0-.3,0-.5,0-.6,0-1.3.3-1.7.6-.7.6-1.3,1.4-1.8,2.1l-.2.3c-.4.5-.6.6-.9.6s-.4,0-.7-.2c-3.5-1.5-6.3-3.7-8.4-6.6q-1.6-2.2,0-4.4c0,0,.1-.1.2-.2.2-.2.4-.5.5-.8.2-.6.3-1.3.1-1.9-.8-2.1-1.7-4.2-2.4-5.8-.2-.4-.6-1-1.2-1.3-.4-.2-.8-.3-1.4-.3Z"/>
    <path class="cls-1" d="m76.7,50.2c6.3,0,12,2.7,17,7.9,6.5,6.9,8.2,17.3,4,25.9-4.4,9.2-11.9,13.9-22.1,14h-.2c-3.9,0-7.6-1.1-11.6-3.3-.5-.3-1.2-.4-1.8-.4s-.6,0-.8,0c-2,.5-4,1-6.1,1.6-.2,0-.4.1-.7.2,0-.2.1-.5.2-.7.5-1.9,1-3.7,1.5-5.5.3-1.1.2-2.1-.5-3.2-3.8-6.3-4.6-13.9-2.1-20.7,2.5-6.8,7.8-11.9,14.6-14.2,2.9-1,5.7-1.5,8.4-1.5m7.6,39.3c1.7,0,3.4-.6,5.2-1.8,1.9-1.3,2.8-3.2,2.7-5.8,0-.7-.5-1.6-1.2-2-1.8-.9-3.9-2-6.1-2.9-.2,0-.4-.1-.7-.1-.7,0-1.5.3-2,.8-.7.7-1.3,1.5-1.9,2.2l-.2.3c-.3.3-.4.3-.5.3s-.2,0-.5-.1c-3.4-1.5-6.1-3.6-8.2-6.4-.7-1-1.2-1.6-1.2-1.9,0-.3.5-1,1.2-1.9,0,0,0-.1.1-.2.2-.3.5-.6.6-1h0c.2-.7.4-1.4,0-2.2-.8-2.1-1.7-4.2-2.4-5.8-.2-.5-.7-1.2-1.4-1.5-.5-.2-1-.3-1.6-.3-1.4,0-2.9.6-3.8,1.5-3,3.1-3.6,7.3-1.7,11.3,3.4,6.9,8.4,11.9,14.7,15.1,2.5,1.2,5.1,2.4,8.2,2.4.1,0,.3,0,.4,0m-7.6-40.3c-2.8,0-5.7.5-8.7,1.5-15.1,5.1-21.4,22.8-13.1,36.4.5.8.7,1.5.4,2.4-.8,2.5-1.4,5.1-2.2,7.9,2.9-.8,5.6-1.5,8.4-2.2.2,0,.4,0,.6,0,.5,0,1,.1,1.3.3,3.8,2.1,7.8,3.4,12.1,3.4s.1,0,.2,0c10.7,0,18.4-5,23-14.5,4.3-9,2.6-19.8-4.2-27-5.2-5.4-11.2-8.2-17.8-8.2h0Zm7.6,39.3c-.1,0-.2,0-.3,0-2.8,0-5.3-1.1-7.8-2.3-6.5-3.2-11.1-8.3-14.3-14.6-1.8-3.7-1.1-7.4,1.5-10.1.7-.7,1.9-1.2,3.1-1.2s.8,0,1.2.2c.4.2.8.6.9,1,.8,1.9,1.7,3.8,2.4,5.8.2.5,0,1.1-.1,1.6,0,.3-.4.6-.6.9q-1.9,2.5,0,5c2.2,3.1,5.1,5.2,8.6,6.7.3.1.6.2.9.2.5,0,.9-.2,1.3-.8.6-.8,1.2-1.7,2-2.4.3-.3.9-.5,1.3-.5.1,0,.2,0,.3,0,2,.8,4,1.8,6,2.8.3.2.6.7.7,1.1,0,2-.5,3.8-2.3,4.9-1.4,1-2.9,1.6-4.6,1.6h0Z"/>
  </g>
</svg>