<?xml version="1.0" encoding="UTF-8"?>
<svg id="Layer_1" data-name="Layer 1" xmlns="http://www.w3.org/2000/svg" viewBox="0 0 150 150">
  <defs>
    <style>
      .cls-1 {
        fill: #1daa61;
      }
    </style>
  </defs>
  <path class="cls-1" d="m75.4,124.5c-27.4,0-49.8-22-49.9-49.1,0-13.3,5.1-25.9,14.4-35.2,9.3-9.4,21.8-14.6,35.1-14.6h.2c27.1,0,49.3,22.1,49.4,49.2,0,13.2-5,25.7-14.3,35.1-9.3,9.4-21.6,14.6-34.7,14.7h-.1Zm-13.7-37.4c-1.4.7-2.8,1.4-4.3,1.8-1.3.3-2.6.4-3.9.6-.8,0-1.6.2-2.4.3-.4,0-.8.3-1.1.5-.1,0-.2.2-.3.2l-.5.3.6.8c.2.3.4.5.6.8.2.2.4.3.6.4h.1c4.8,2.5,9.7,3.7,14.4,3.7s8.8-1.1,13.1-3.2c10.3-5.1,15.9-13.9,16.7-26.2,0-1.3.5-2.1,1.4-2.9,1-.9,1.8-1.9,2.7-2.9l.6-.7c.2-.3.2-.6.3-.9,0,0,0-.2,0-.3v-.5c.1,0-.4,0-.4,0,0,0-.2,0-.3,0-.2,0-.4,0-.5,0s-.2,0-.4,0c-.5.1-.9.3-1.4.5.5-.9,1-1.8,1.5-2.7.2-.3.1-.7.1-1.1,0-.1,0-.2,0-.3v-.6s-.6,0-.6,0c-.1,0-.2,0-.3,0-.3,0-.6,0-.9.2-.8.3-1.5.7-2.3,1l-1,.4c-.5.2-.9.3-1.4.3-.6,0-1.2-.2-1.9-.8-2-1.5-4.1-2.2-6.4-2.2s-3.4.4-5.1,1.2c-3.7,1.8-5.8,4.9-6.2,9.1h0c-.2,2.1-.2,2.1-.6,2.1s-1-.1-1.8-.3c-6.4-1.3-11.8-4.4-16.1-9.3-.5-.6-.9-.9-1.4-.9-.8,0-1,.9-1.2,1.3-.5,1.5-1,3.5-1.1,5.5,0,2,.6,3.9,2,5.9,0,0-.1,0-.2,0-.5-.2-.8-.3-1-.3s-.6.2-.7.3c-.3.3-.3.8-.3,1.5.2,3.4,1.7,6.1,4.3,8.2.2.1.4.3.6.4-.4,0-.9.1-1.1.5-.3.5,0,1.1.4,2.1.1.3.3.6.4.9,1.5,2.5,3.6,4.3,6.6,5.4Z"/>
  <path class="cls-1" d="m75.1,25v1c26.9,0,48.8,21.8,48.9,48.7,0,13.1-5,25.4-14.2,34.8-9.2,9.3-21.4,14.5-34.3,14.5h-.1c-13.2,0-25.6-5.1-34.9-14.2-9.3-9.2-14.5-21.4-14.5-34.4,0-13.2,5-25.6,14.2-34.9,9.2-9.3,21.5-14.4,34.7-14.5h.2s0-1,0-1m-2.9,40.6c-.3,0-.9-.1-1.7-.3-6.3-1.2-11.6-4.3-15.8-9.1-.5-.5-1-1.1-1.7-1.1-1.1,0-1.5,1.2-1.6,1.7-.5,1.6-1,3.6-1.1,5.7,0,1.7.4,3.4,1.4,5.1,0,0,0,0,0,0-.5,0-.9.2-1,.4-.4.5-.5,1.2-.4,1.8.2,3.4,1.7,6.2,4.2,8.4-.2,0-.3.2-.4.4-.5.7,0,1.6.3,2.5.1.3.3.6.5.9,1.4,2.3,3.3,4,5.8,5.2-1.1.5-2.1,1-3.2,1.2-1.2.3-2.5.4-3.8.6-.8,0-1.6.2-2.4.3-.5,0-.9.4-1.3.6-.1,0-.2.1-.3.2l-1,.6.7.9c0,0,.1.2.2.3.2.3.4.6.6.8.2.3.5.4.7.5h.1c4.9,2.5,9.8,3.8,14.6,3.8s9-1.1,13.3-3.2c10.5-5.2,16.2-14.1,17-26.6,0-1.1.4-1.8,1.2-2.6,1-.9,1.9-2,2.7-3,.2-.2.4-.5.6-.7.3-.4.4-.9.4-1.2,0,0,0-.1,0-.2l.2-1.1h-1.1c0-.1-.1-.1-.2-.1-.2,0-.4,0-.6,0-.2,0-.3,0-.5,0,0,0-.1,0-.2,0,.3-.5.6-1,.8-1.6.2-.5.2-1,.2-1.3,0,0,0-.2,0-.3v-1.2s-1.2.2-1.2.2c0,0-.2,0-.3,0-.3,0-.6,0-1,.2-.8.3-1.5.7-2.3,1-.3.1-.6.3-.9.4-.4.2-.8.3-1.1.3-.5,0-1-.2-1.7-.7-2.1-1.5-4.3-2.3-6.7-2.3-1.7,0-3.5.4-5.3,1.3-3.9,1.8-6.1,5.1-6.5,9.5h0c0,.7-.1,1.3-.2,1.6m2.9-40.6c0,0-.1,0-.2,0-27.8,0-50,22.5-49.9,50.4,0,27.5,22.6,49.6,50.4,49.6s0,0,.1,0c27.3,0,49.6-22.7,49.5-50.3,0-27.4-22.5-49.7-49.9-49.7h0Zm-2.8,41.6c1,0,1-.6,1.1-2.6.3-4,2.3-7,5.9-8.7,1.6-.8,3.3-1.2,4.9-1.2,2.1,0,4.2.7,6.1,2.1.8.6,1.5.9,2.2.9s1-.1,1.6-.4c1.1-.5,2.1-1,3.2-1.4.3-.1.7-.1,1.1-.2,0,.4.1.9,0,1.2-.6,1.3-1.4,2.5-2.2,3.8.9-.3,1.8-.7,2.7-.9,0,0,.1,0,.2,0,.2,0,.5,0,.7.1,0,.3,0,.7-.2.9-1,1.2-2,2.5-3.2,3.6-1,.9-1.4,1.9-1.5,3.2-.8,11.6-5.9,20.6-16.4,25.8-4.3,2.1-8.6,3.1-12.9,3.1s-9.5-1.2-14.2-3.6c-.2,0-.4-.2-.6-.3-.3-.3-.5-.7-.8-1.1.4-.2.8-.6,1.2-.7,2.1-.3,4.3-.3,6.3-.9,1.9-.5,3.6-1.4,5.4-2.4-3.3-1-5.7-2.7-7.4-5.5-.2-.3-.3-.5-.4-.8-.7-1.5-.7-1.8.4-1.8.2,0,.4,0,.7,0,0,0,0,0,0,0,.1,0,.3,0,.6,0-.7-.5-1.3-.9-1.8-1.3-2.5-2-3.8-4.7-4.1-7.8,0-.8,0-1.2.5-1.2s.5,0,.9.2c.4.2.8.3,1.2.5,0,0,0,0,0,0,0,0,.2,0,.4,0-1.7-2-2.9-4.2-2.8-6.7,0-1.8.5-3.7,1.1-5.4.2-.7.4-1,.7-1,.3,0,.6.3,1,.7,4.4,5,9.8,8.2,16.3,9.5.9.2,1.5.3,1.9.3h0Z"/>
</svg>