<?xml version="1.0" encoding="UTF-8"?>
<svg id="Layer_1" data-name="Layer 1" xmlns="http://www.w3.org/2000/svg" viewBox="0 0 150 150">
  <defs>
    <style>
      .cls-1 {
        fill: #1daa61;
      }
    </style>
  </defs>
  <path class="cls-1" d="m74.9,124.8c-27.4,0-49.7-22.3-49.7-49.8,0-13.3,5.2-25.8,14.6-35.2,9.4-9.4,21.9-14.6,35.2-14.6,27.5,0,49.7,22.3,49.7,49.8,0,13.3-5.2,25.8-14.6,35.2-9.4,9.4-21.9,14.6-35.2,14.6h0Zm-8.2-18.4h13v-29.1h8.2l1.1-11.3h-9.3v-1.2c0-1.3,0-2.5,0-3.7,0-2.4.5-2.9,2.9-2.9h6.1v-10.9h-.5c-1.1,0-2.3,0-3.4,0-1.1,0-2.3,0-3.4,0-1.6,0-3,0-4.2.1-5.7.4-9.7,4.3-10.4,10.2-.2,1.6-.2,3.3-.2,4.9,0,.7,0,1.4,0,2.1,0,.4,0,.9,0,1.3v.2s-5.7,0-5.7,0v11.3h5.8v29.1Z"/>
  <path class="cls-1" d="m75,24.7v1c27.2,0,49.2,22.1,49.2,49.3,0,13.1-5.1,25.5-14.5,34.8-9.3,9.3-21.7,14.5-34.8,14.5v1-1c-27.2,0-49.2-22.1-49.2-49.3,0-27.2,22.1-49.3,49.3-49.3v-1m-8.8,40.8h-5.7v12.3h5.8v29.1h14v-29.1h8.1v-.9c0,0,.7-6.1.7-6.1l.4-4.2v-1.1c.1,0-1,0-1,0h-8.2v-.8c0-1.2,0-2.4,0-3.6,0-2.2.3-2.4,2.4-2.4h2.1s1.7,0,1.7,0h1.7s1,0,1,0v-11.9h-1c-1.1,0-2.3,0-3.4,0-1.1,0-2.3,0-3.4,0-1.6,0-3,0-4.2.1-6,.4-10.2,4.5-10.8,10.7-.2,1.7-.2,3.3-.2,4.9,0,.7,0,1.4,0,2.1,0,.3,0,.7,0,1.1m8.8-40.8c-27.7,0-50.3,22.6-50.3,50.3,0,27.7,22.5,50.2,50.2,50.3,0,0,0,0,0,0,27.7,0,50.3-22.6,50.3-50.3,0-27.7-22.5-50.2-50.2-50.3,0,0,0,0,0,0h0Zm-13.5,52v-10.3h5.7c0-.8,0-1.4,0-2,0-2.3,0-4.6.2-6.9.6-5.6,4.4-9.3,9.9-9.8,1.4-.1,2.8-.1,4.2-.1,2.3,0,4.5,0,6.8,0v9.9c-1.2,0-2.3,0-3.5,0s-1.4,0-2.1,0c-2.7,0-3.4.7-3.4,3.4,0,1.7,0,3.5,0,5.4h9.2c-.4,3.5-.7,6.8-1,10.3h-8.2v29.1h-12v-29.1h-5.8Z"/>
</svg>