<?xml version="1.0" encoding="UTF-8"?>
<svg id="Layer_1" data-name="Layer 1" xmlns="http://www.w3.org/2000/svg" viewBox="0 0 150 150">
  <defs>
    <style>
      .cls-1 {
        fill: #1daa61;
      }
    </style>
  </defs>
  <g>
    <path class="cls-1" d="m75,124.5c-13.2,0-25.6-5.2-35-14.6-9.4-9.4-14.5-21.8-14.5-35,0-27.2,22.2-49.4,49.5-49.4,13.2,0,25.6,5.2,35,14.6,9.4,9.4,14.5,21.8,14.5,35,0,27.2-22.2,49.4-49.5,49.4h0Zm25.2-26.3c4.8,0,7.6-2.8,7.6-7.6,0-10.4,0-20.8,0-31.2,0-4.9-2.7-7.6-7.6-7.6h-50.4c-4.8,0-7.5,2.7-7.5,7.5,0,10.5,0,20.9,0,31.4,0,4.8,2.8,7.5,7.6,7.6h25s25.2,0,25.2,0Z"/>
    <path class="cls-1" d="m75,26c13.1,0,25.4,5.1,34.6,14.4,9.3,9.3,14.4,21.6,14.3,34.7,0,27-22,48.9-49,48.9-13.1,0-25.4-5.1-34.6-14.4-9.3-9.3-14.4-21.6-14.3-34.7,0-27,22-48.9,49-48.9h0m-14.9,72.7h7.4s7.4,0,7.4,0h7.4s7.4,0,7.4,0h10.4c5.1,0,8.1-2.9,8.1-8.1,0-10.4,0-20.8,0-31.2,0-5.2-2.9-8.1-8.1-8.1h-25.2s-25.2,0-25.2,0c-5,0-8,3-8,8,0,10.5,0,20.9,0,31.4,0,5.1,3,8,8.1,8.1h10.2m14.9-73.7c-27.5,0-50,22.4-50,49.9,0,27.6,22.4,50.1,50,50.1h0c27.5,0,50-22.4,50-49.9,0-27.6-22.4-50.1-50-50.1h0Zm-14.9,72.7c-3.4,0-6.8,0-10.2,0-4.6,0-7.1-2.5-7.1-7.1,0-10.5,0-20.9,0-31.4,0-4.5,2.5-7,7-7,8.4,0,16.8,0,25.2,0s16.8,0,25.2,0c4.6,0,7.1,2.5,7.1,7.1,0,10.4,0,20.8,0,31.2,0,4.6-2.5,7.1-7.1,7.1-3.5,0-6.9,0-10.4,0-5,0-9.9,0-14.9,0s-9.8,0-14.8,0h0Z"/>
  </g>
  <g>
    <path class="cls-1" d="m50.2,92.1q-1.7,0-1.7-1.7v-29.2c.2.1.3.2.4.3l23.5,18.7c1.1.9,1.8,1.2,2.6,1.2s1.5-.3,2.5-1.2c5.2-4.1,10.4-8.2,15.6-12.4l7.9-6.3c.2-.1.4-.3.6-.4v29.3q0,1.6-1.7,1.6h-29.2s-20.6,0-20.6,0Z"/>
    <path class="cls-1" d="m49,62.1l10.9,8.7c4.1,3.2,8.2,6.5,12.2,9.7.9.7,1.8,1.3,2.9,1.3s2-.6,2.8-1.3c5.2-4.1,10.4-8.3,15.7-12.4l7.6-6v6.7s0,21.6,0,21.6c0,.2,0,.8,0,1.1-.3,0-.9,0-1.1,0h-25.3s-24.4,0-24.4,0c-.3,0-.9,0-1.2,0,0-.3,0-.9,0-1.2v-21.1s0-7.1,0-7.1m53.1-2c-.6.5-1,.8-1.4,1.1-7.8,6.2-15.6,12.4-23.4,18.6-.9.7-1.6,1.1-2.2,1.1s-1.3-.4-2.3-1.1c-7.8-6.2-15.7-12.5-23.5-18.7-.3-.3-.7-.5-1.2-.9v1.4c0,9.6,0,19.2,0,28.8,0,2.1.1,2.2,2.2,2.2,8.1,0,16.3,0,24.4,0s16.9,0,25.3,0c2,0,2.2-.2,2.2-2.1,0-9.6,0-19.3,0-28.9v-1.4h0Z"/>
  </g>
  <g>
    <path class="cls-1" d="m75,74.2c-.1,0-.3,0-.5-.3-5.1-4.1-10.3-8.2-15.5-12.3l-4.5-3.6h41.1l-.5.4c-6.5,5.1-12.9,10.3-19.4,15.4-.3.2-.5.4-.7.4Z"/>
    <path class="cls-1" d="m94.1,58.5c-6.1,4.8-12.4,9.8-18.7,14.9-.2.2-.3.2-.4.3,0,0-.1,0-.2-.2-5.2-4.1-10.4-8.3-15.5-12.4l-3.3-2.6h38.2m2.5-1h-43.5c.3.3.4.4.6.5,6.8,5.4,13.7,10.8,20.5,16.3.3.3.6.4.9.4s.6-.2,1-.5c6.6-5.3,13.3-10.6,20-15.9.3-.2.6-.3.8-.5,0,0-.2-.2-.2-.3h0Z"/>
  </g>
</svg>