<?xml version="1.0" encoding="UTF-8"?>
<svg id="Layer_1" data-name="Layer 1" xmlns="http://www.w3.org/2000/svg" viewBox="0 0 150 150">
  <defs>
    <style>
      .cls-1 {
        fill: #1daa61;
      }
    </style>
  </defs>
  <g>
    <path class="cls-1" d="m75,124.5c-13.2,0-25.6-5.2-35-14.6-9.4-9.4-14.5-21.8-14.5-35,0-27.2,22.2-49.4,49.5-49.4,13.2,0,25.7,5.2,35,14.6,9.4,9.4,14.5,21.8,14.5,35,0,27.2-22.2,49.4-49.5,49.4h0Zm-.4-83.3c-9,.1-17.5,3.8-23.8,10.3-6.3,6.5-9.7,15-9.6,24,.3,18.4,15.4,33.3,33.6,33.3h.5c9-.1,17.5-3.8,23.8-10.2,6.3-6.5,9.7-15,9.6-23.9-.3-18.4-15.4-33.4-33.7-33.4h-.5Z"/>
    <path class="cls-1" d="m75,25v1c13.1,0,25.4,5.1,34.6,14.4,9.3,9.3,14.4,21.6,14.3,34.7,0,27-22,48.9-49,48.9-13.1,0-25.4-5.1-34.6-14.4-9.3-9.3-14.4-21.6-14.3-34.7,0-27,22-48.9,49-48.9v-1m-.1,84.3c.2,0,.3,0,.5,0,9.2-.1,17.8-3.8,24.2-10.4,6.4-6.6,9.9-15.2,9.7-24.3-.3-18.7-15.6-33.9-34.2-33.9s-.4,0-.5,0c-9.2.1-17.7,3.8-24.1,10.4-6.4,6.6-9.8,15.2-9.7,24.3.3,18.7,15.6,33.8,34.1,33.8m.1-84.3c-27.5,0-50,22.4-50,49.9,0,27.6,22.4,50.1,50,50.1h0c27.5,0,50-22.4,50-49.9,0-27.6-22.4-50.1-50-50.1,0,0,0,0,0,0h0Zm-.1,83.3c-18,0-32.9-14.7-33.1-32.8-.3-18.3,14.5-33.5,32.9-33.7.2,0,.3,0,.5,0,18.1,0,32.9,14.7,33.2,32.9.3,18.3-14.5,33.4-32.9,33.7-.2,0-.3,0-.5,0h0Z"/>
  </g>
  <g>
    <rect class="cls-1" x="66" y="68.6" width="17.9" height="12.9"/>
    <path class="cls-1" d="m83.5,69.1v11.9h-16.9v-11.9h16.9m1-1h-18.9v13.9h18.9v-13.9h0Z"/>
  </g>
  <g>
    <path class="cls-1" d="m67,62.3c.9-4.3,2-8.9,4.9-12.6,1.1-1.5,2.2-2.2,3.2-2.2s2.1.8,3.2,2.3c2.7,3.6,3.8,7.9,4.6,11.7,0,.3.1.6.2.9h-16Z"/>
    <path class="cls-1" d="m75,47.9h0c.8,0,1.8.7,2.8,2.1,2.6,3.5,3.7,7.8,4.6,11.5,0,.1,0,.2,0,.3h-14.8c.9-4.1,2-8.3,4.6-11.8,1-1.3,1.9-2,2.8-2m0-1c-1.2,0-2.4.8-3.6,2.4-2.9,4-4.1,8.6-5.1,13.4h17.2c-.1-.6-.2-1.1-.3-1.6-.9-4.2-2.1-8.3-4.7-11.9-1.2-1.6-2.4-2.5-3.6-2.5h0Z"/>
  </g>
  <g>
    <path class="cls-1" d="m75,102.6c-1.1,0-2.3-.9-3.5-2.7-2.4-3.4-3.5-7.4-4.5-12.2h16c-1,4.8-2.1,8.8-4.6,12.2-1.2,1.7-2.4,2.6-3.5,2.6Z"/>
    <path class="cls-1" d="m82.4,88.3c-.9,4.5-2.1,8.2-4.4,11.5-1.1,1.6-2.1,2.4-3,2.4s-2-.8-3.1-2.4c-2.2-3.2-3.4-6.9-4.3-11.4h14.8m1.2-1h-17.3c.9,4.7,2.1,9.1,4.7,13,1.3,1.9,2.6,2.9,3.9,2.9s2.6-.9,3.9-2.8c2.7-3.9,3.8-8.4,4.8-13h0Z"/>
  </g>
  <g>
    <path class="cls-1" d="m50.4,81.5c-.6,0-1.2,0-1.7,0-.1,0-.5-.3-.5-.4-1-4-1-8.1,0-12.1,0-.1.3-.4.4-.4,1.8,0,3.6,0,5.5,0s5.8,0,5.8,0v13h-7.3c-.4,0-1.8,0-2.1,0Z"/>
    <path class="cls-1" d="m54,69c1.5,0,2.9,0,4.4,0h.9v12h-3.5s-3.3,0-3.3,0c-.4,0-.7,0-1.1,0-.4,0-.7,0-1.1,0-.6,0-1.2,0-1.6,0,0,0-.1,0-.2-.1-.9-3.9-.9-7.8,0-11.7,0,0,0,0,0,0,1.6,0,3.3,0,5.3,0m0-1c-1.8,0-3.7,0-5.5,0-.3,0-.8.5-.9.8-1,4.1-1,8.2,0,12.4,0,.3.6.8,1,.8.6,0,1.2,0,1.8,0s1.4,0,2.1,0h0c1.1,0,2.2,0,3.3,0s3,0,4.5,0v-13.9c0,0-.2-.1-.3-.1-2,0-4,0-6,0h0Z"/>
  </g>
  <g>
    <path class="cls-1" d="m90.2,81.5v-13h8.7c.8,0,1.6,0,2.4,0,.1,0,.5.3.5.4,1,4,1,8.1,0,12.1,0,.1-.2.3-.2.4-2.6,0-5.1,0-7.7,0h-3.7Z"/>
    <path class="cls-1" d="m99,69c.9,0,1.6,0,2.3,0,0,0,.1,0,.2.1.9,3.9.9,7.9,0,11.8,0,0,0,0,0,0-2.6,0-5.1,0-7.5,0h-2.1s-1.1,0-1.1,0v-12h3s2.5,0,2.5,0c.4,0,.9,0,1.3,0,.4,0,.9,0,1.3,0m0-1c-.9,0-1.8,0-2.6,0h0c-.8,0-1.7,0-2.5,0-1.4,0-2.7,0-4,0v14c1.4,0,2.8,0,4.2,0,2.6,0,5.2,0,7.8,0,.2,0,.6-.5.6-.8,1-4.1,1-8.3,0-12.4,0-.3-.6-.8-1-.8-.8,0-1.6,0-2.4,0h0Z"/>
  </g>
  <g>
    <path class="cls-1" d="m89.3,62.2c-.8-3.9-1.8-8.3-3.8-12.6,6.1,2.5,10.7,6.6,14,12.6h-10.2Z"/>
    <path class="cls-1" d="m86.5,50.6c5.2,2.3,9.2,6,12.1,11.2h-8.9c-.7-3.5-1.6-7.3-3.2-11.2m-2-1.9c2.3,4.5,3.5,9.2,4.4,14h11.4c-3.5-6.8-8.7-11.5-15.8-14h0Z"/>
  </g>
  <g>
    <path class="cls-1" d="m85.3,100.6c2.3-4.7,3.4-9.3,4-12.9h10.2c-3.3,6-7.9,10.2-14.2,12.9Z"/>
    <path class="cls-1" d="m98.6,88.3c-3,5.2-7,8.8-12.3,11.4,1.9-4.1,2.8-8.1,3.4-11.4h8.9m1.7-1h-11.4c-.9,4.9-2.2,9.6-4.7,14.3,7.4-2.8,12.6-7.5,16.1-14.3h0Z"/>
  </g>
  <g>
    <path class="cls-1" d="m60.3,62.3c-1.6,0-3.2,0-4.8,0h-5.1c3.3-6,7.9-10.2,14.2-12.9-.2.4-.4.8-.5,1.2-1.1,3.4-2.2,7-3.3,11.1,0,0,0,.2,0,.3q-.1.4-.4.4h0Z"/>
    <path class="cls-1" d="m63.7,50.4s0,0,0,0c-1.1,3.4-2.2,7.1-3.3,11.1,0,0,0,.2,0,.3,0,0,0,0,0,0-1.6,0-3.2,0-4.8,0h-2.8s-1.3,0-1.3,0c3-5.2,7-8.9,12.4-11.4m2-1.9c-7.3,2.8-12.5,7.4-16.1,14.4,2,0,3.9,0,5.8,0s3.2,0,4.8,0c0,0,0,0,0,0,.8,0,.8-.5,1-1.1,1.1-3.7,2.2-7.4,3.3-11,.2-.7.6-1.3,1.1-2.3h0Z"/>
  </g>
  <g>
    <path class="cls-1" d="m64.5,100.4c-6.1-2.5-10.7-6.6-14-12.7h10.2c.7,3.7,1.8,8.3,3.8,12.7Z"/>
    <path class="cls-1" d="m60.3,88.2c.6,3.3,1.6,7.3,3.3,11.2-5.2-2.4-9.2-6.1-12.2-11.2h8.9m.8-1h-11.4c3.5,6.9,8.7,11.6,15.8,14.1-2.3-4.5-3.5-9.2-4.4-14.1h0Z"/>
  </g>
</svg>