<?xml version="1.0" encoding="UTF-8"?>
<svg id="Layer_1" data-name="Layer 1" xmlns="http://www.w3.org/2000/svg" viewBox="0 0 150 150">
  <defs>
    <style>
      .cls-1 {
        fill: #1daa61;
      }
    </style>
  </defs>
  <g>
    <path class="cls-1" d="m74.9,124.9c-27.5,0-49.8-22.3-49.8-49.8,0-13.3,5.2-25.9,14.6-35.3,9.4-9.4,21.9-14.6,35.3-14.6,13.3,0,25.8,5.2,35.3,14.6,9.4,9.4,14.6,22,14.6,35.3,0,27.5-22.4,49.8-49.9,49.8Zm-28.3-32.1h.4c0,0,.2.1.2.1.1,0,.3,0,.4,0,1.8,0,3.7,0,5.5,0,2,0,4,0,6,0,2.9,0,5.3,0,7.5,0,5.1-.1,8.7-3.3,9.4-8.2.3-2.1.2-4.4-.3-6.9-.4-2.1-1.8-3.6-4-4.3,1.9-1,3-2.4,3.4-4.4.5-2.4.2-4.8-.7-7-1-2.3-2.7-3.8-4.9-4.5-1.3-.4-2.7-.5-4.1-.6-4.1,0-8.2,0-12.2,0h-6.6s0,35.7,0,35.7Zm44.1-27c-1.7,0-3.4.3-5.1.9-5.8,2-9.4,8.6-8.3,15.5.9,5.7,3.9,9.1,8.8,10.3,1.3.3,2.8.5,4.4.5h0c.8,0,1.6,0,2.5-.1,2.8-.2,5.4-1.3,7.4-3.2,2-1.9,3-4.3,3-7.4v-.5h-7.7v.4c-1,3.2-2.4,4.8-4.5,4.8s-.8,0-1.2-.1c-2.5-.6-4.1-3.1-3.8-5.9h17.2v-.5c0-.4,0-.7,0-1.1,0-.8,0-1.5,0-2.2-.7-5.6-3.1-9-7.5-10.4-1.6-.5-3.3-.8-5-.8Zm-7.5-.8h14.8v-4.3h-14.8v4.3Z"/>
    <path class="cls-1" d="m75,25.6c13.2,0,25.6,5.1,34.9,14.5,9.3,9.3,14.5,21.7,14.5,34.9,0,13.2-5.2,25.6-14.5,34.9-9.3,9.3-21.7,14.4-35,14.4-27.2,0-49.3-22.1-49.3-49.3,0-13.2,5.1-25.6,14.5-34.9,9.3-9.3,21.7-14.5,34.9-14.5h0m-15.9,67.9c2.9,0,5.3,0,7.5,0,5.4-.1,9.2-3.4,9.9-8.6.1-1.1.2-2.2.2-3.3,0,.2,0,.4,0,.6.9,5.9,4,9.5,9.2,10.7,1.4.3,2.8.5,4.5.5s1.6,0,2.5-.1c2.9-.2,5.6-1.4,7.7-3.4,2.2-2,3.2-4.6,3.2-7.8v-1h0v-.8c0-.4,0-.7,0-1.1,0-.8,0-1.5,0-2.3-.7-5.8-3.3-9.3-7.9-10.8-.9-.3-1.8-.5-2.7-.6h5.4v-5.3h-15.8v5.3h5.6c-1,.1-1.9.4-2.9.7-5.5,1.8-9,7.6-8.9,13.9,0-.7-.2-1.5-.3-2.2-.3-1.5-1.1-3.2-3.4-4.3,1.5-1,2.4-2.4,2.7-4.2.5-2.5.3-5-.7-7.3-1-2.4-2.8-4.1-5.2-4.7-1.3-.4-2.8-.6-4.3-.6-4.1,0-8.3,0-12.3,0-1.5,0-3,0-4.5,0h-.5s-.5,0-.5,0h-.5s-1,0-1,0v36.6l.7.2c0,0,0,0,.1,0,.1,0,.3.1.6.1,1.8,0,3.7,0,5.5,0,2,0,4,0,6,0m36.1-12.3l-.2.6c-1.1,4-2.8,4.5-4,4.5s-.7,0-1.1-.1c-2.1-.5-3.5-2.6-3.5-4.9h8.7m-20.3-56.6h0c-27.8,0-50.4,22.6-50.4,50.4,0,27.8,22.6,50.3,50.3,50.3,27.9,0,50.4-22.5,50.4-50.3,0-27.8-22.6-50.4-50.4-50.4h0Zm-15.9,67.9c-3.8,0-7.7,0-11.5,0-.1,0-.2,0-.4-.1v-34.8c.4,0,.7,0,1,0s.3,0,.5,0c5.6,0,11.2,0,16.8,0,1.3,0,2.7.2,4,.5,2.2.6,3.7,2.1,4.6,4.2.9,2.2,1.1,4.4.6,6.7-.4,2.3-1.9,3.8-4.5,4.7,2.9.4,4.7,1.8,5.2,4.2.4,2.2.6,4.5.3,6.7-.7,4.7-4.1,7.7-8.9,7.8-2.5,0-5,0-7.5,0h0Zm24.7-28.1v-3.3h13.8v3.3h-13.8Zm6.7,27.9c-1.5,0-2.9-.1-4.3-.5-5.1-1.2-7.6-4.9-8.4-9.9-1-6.6,2.4-13,8-14.9,1.6-.6,3.3-.8,5-.8,1.6,0,3.2.3,4.8.8,4.8,1.5,6.6,5.3,7.2,10,.1,1,0,2.1,0,3.2h-17.1c-.6,3.2,1.3,6.2,4.2,6.9.5.1.9.2,1.3.2,2.4,0,4-1.7,4.9-5.2h6.8c0,2.8-.8,5.2-2.8,7-2,1.9-4.4,2.9-7.1,3.1-.8,0-1.6.1-2.5.1h0Z"/>
  </g>
  <g>
    <path class="cls-1" d="m55.1,86.7c-.2,0-.3,0-.5,0v-9.4s5.5,0,6.4,0,2.3,0,3.5,0c1.9,0,3.4.9,4.3,2.3.9,1.5.9,3.3,0,4.9-.8,1.5-2.1,2.2-4.3,2.2-1.3,0-2.6,0-3.8,0h-5.5Z"/>
    <path class="cls-1" d="m61,77.8c1.1,0,2.3,0,3.4,0,1.7,0,3.1.8,3.9,2.1.8,1.3.8,2.9,0,4.4-.7,1.3-1.9,1.9-3.9,1.9-1.3,0-2.5,0-3.8,0s-2.3,0-3.4,0h-2s0,0,0,0v-8.5h.5c.9,0,1.8,0,2.7,0,.9,0,1.8,0,2.7,0m0-1c-1.8,0-3.6,0-5.4,0h0c-.2,0-.4,0-.6,0-.3,0-.6,0-.9,0v10.4c.4,0,.7,0,1,0,1.8,0,3.7,0,5.5,0s2.5,0,3.8,0c2,0,3.7-.5,4.7-2.4,2-3.8-.4-7.9-4.7-8-1.2,0-2.3,0-3.5,0h0Z"/>
  </g>
  <g>
    <path class="cls-1" d="m54.6,71v-7.7h6c.9,0,1.7,0,2.6,0,1.8,0,2.9,1,3.1,2.6.1,1.1,0,2.3-.3,3.4-.3,1-1.2,1.6-2.3,1.7-1.3,0-2.6,0-4,0,0,0-4.3,0-5.1,0Z"/>
    <path class="cls-1" d="m60.6,63.8c.9,0,1.7,0,2.6,0,1.1,0,2.4.4,2.6,2.2.1,1,0,2.2-.3,3.2-.2.8-.9,1.3-1.8,1.3-1.2,0-2.4,0-4,0s-1.8,0-2.7,0c-.6,0-1.2,0-1.8,0v-6.7h.6s1,0,1,0c.7,0,1.3,0,2,0,.6,0,1.3,0,1.9,0m0-1c-1.3,0-2.6,0-3.9,0h0c-.3,0-.6,0-.9,0-.5,0-1.1,0-1.6,0v8.7c1.9,0,3.7,0,5.6,0s2.7,0,4,0c1.3,0,2.4-.8,2.8-2,.3-1.1.5-2.4.3-3.6-.2-2-1.6-3.1-3.6-3.1-.9,0-1.7,0-2.6,0h0Z"/>
  </g>
  <g>
    <path class="cls-1" d="m86.1,76.2c0-.9.3-1.8.8-2.5.7-.9,1.9-1.5,3.2-1.6.2,0,.3,0,.5,0,1.5,0,2.7.4,3.5,1.3.7.7,1.1,1.7,1.2,2.9h-9.2Z"/>
    <path class="cls-1" d="m90.7,72.5c1.3,0,2.4.4,3.1,1.1.5.5.8,1.2,1,2.1h-8.1c0-.6.3-1.2.7-1.7.7-.8,1.7-1.3,2.8-1.4.2,0,.3,0,.5,0m0-1c-.2,0-.4,0-.5,0-2.8.2-4.9,2.5-4.5,5.1h10.2c0-3.2-2-5.2-5.2-5.2h0Z"/>
  </g>
</svg>